<svg xmlns="http://www.w3.org/2000/svg" viewBox="0 0 2933.76 542"><g id="Layer_2" data-name="Layer 2"><g id="Layer_1-2" data-name="Layer 1"><path d="M1051.85,93.18a145.83,145.83,0,0,0-3.42-27.69,72,72,0,0,0-4.38-13,49.13,49.13,0,0,0-7.36-11.7,49.72,49.72,0,0,0-19-13.56A101.77,101.77,0,0,0,996.26,21c-4.36-.84-10-1.71-15.87-2.44-5.37-.67-10.33-1.22-16.06-1.8-10.9-1.1-23.67-2.24-35-3.16-29.6-2.36-62.25-4.4-97.08-6.08C815.85,6.71,799.77,6,783.07,5.4c-16.23-.61-33-1.16-49.72-1.64-32-.93-65.32-1.66-99.13-2.19-33.59-.52-66.79-.82-98.69-.9l-8.81,0H526l-9.48,0c-31.9.08-65.11.38-98.71.9-33.8.53-67.14,1.26-99.11,2.19C302,4.24,285.25,4.79,269,5.4c-16.71.62-32.78,1.31-49.14,2.09-34.82,1.68-67.49,3.72-97.09,6.08-11.38.92-24.15,2.07-35,3.16-5.74.58-10.7,1.13-16.07,1.8-5.88.73-11.51,1.6-15.86,2.44a101.59,101.59,0,0,0-21.47,6.24,49.87,49.87,0,0,0-19,13.57A48.71,48.71,0,0,0,8,52.47a72.33,72.33,0,0,0-4.4,13A146.7,146.7,0,0,0,.23,93.18C.16,95,.1,97,.06,99c0,1.62,0,3.25,0,4.86v.94c0,7,.19,15.15.55,23.52C1.09,140.41,2,153.73,3,164.85,4.1,177,5.19,186.29,6.49,195c1.35,9,2.84,16.58,4.83,24.58a135.47,135.47,0,0,0,8.86,25,104.36,104.36,0,0,0,6.53,11.71,102.6,102.6,0,0,0,8.43,11.24c9.79,11.37,22.26,20.86,39.21,29.86l1.07.58c.8.42,1.59.85,2.42,1.27,7.14,3.63,14.47,6.94,23.09,10.42,7.83,3.17,16.76,6.44,26.53,9.7,9.55,3.19,19.59,6.3,30.69,9.49,10.21,2.93,21.59,6,32.92,8.85,20.25,5.11,42.24,10.18,65.36,15.08,22.09,4.67,44.7,9.14,67.2,13.28,22.07,4.06,44.37,7.87,66.29,11.31l4.44.67c20.42,3.15,41.36,6.07,60.54,8.45,21.55,2.67,43.93,5,63,6.48,3.33.24,4.91.33,6.75.36h1.39c2.63,0,4.15-.08,8.13-.37,19.07-1.51,41.44-3.81,63-6.48,19.2-2.38,40.14-5.3,60.53-8.45l4.46-.68c22-3.44,44.27-7.25,66.28-11.3,22.5-4.13,45.11-8.61,67.2-13.28,23.11-4.89,45.1-10,65.37-15.08,11.35-2.86,22.72-5.92,32.92-8.85,11.12-3.21,21.16-6.31,30.68-9.49,9.78-3.27,18.71-6.53,26.53-9.7,8.63-3.48,16-6.8,23.09-10.42.83-.42,1.62-.84,2.4-1.27l1.09-.58c17-9,29.41-18.48,39.21-29.86a102.92,102.92,0,0,0,8.43-11.24,101.36,101.36,0,0,0,6.52-11.71,133.34,133.34,0,0,0,8.87-25c2-8,3.49-15.61,4.83-24.58,1.3-8.66,2.38-17.95,3.5-30.13,1-11.07,1.9-24.39,2.44-36.54.38-8.46.56-16.53.55-24C1052.07,100.56,1052,96.7,1051.85,93.18Zm-32,35.73c-.55,11.6-1.43,24.65-2.28,33.93-.88,9.67-2,18.57-3.19,26.77s-2.67,15.68-4.52,23.5a150.43,150.43,0,0,1-7.6,23.45,88,88,0,0,1-12.11,20.75,81.94,81.94,0,0,1-7.58,8.35,92,92,0,0,1-8.94,7.56,130.74,130.74,0,0,1-21.51,12.89c-13.69,6.57-28.32,12.13-47.52,18.24-9.09,2.89-18.56,5.68-28.31,8.39s-20.46,5.51-30.8,8.08c-20.48,5.07-41.71,9.92-62.84,14.44-21.38,4.56-42.34,8.76-63.06,12.62s-41.28,7.38-61.91,10.6c-21.3,3.32-42.43,6.27-63,8.75s-40.63,4.52-60.53,6.12c-4.21.34-5.5.4-8.15.4s-3.95-.06-8.15-.4c-19.89-1.6-40-3.64-60.53-6.12s-41.67-5.43-63-8.75c-20.62-3.22-41.19-6.75-61.9-10.6s-41.68-8.06-63.07-12.62c-21.12-4.52-42.35-9.37-62.83-14.44-10.35-2.57-21.06-5.37-30.81-8.08s-19.22-5.5-28.31-8.39c-19.2-6.11-33.82-11.67-47.52-18.24a131.16,131.16,0,0,1-21.51-12.89,90.77,90.77,0,0,1-8.94-7.56,81.94,81.94,0,0,1-7.58-8.35A88.68,88.68,0,0,1,49.8,236.56a148.26,148.26,0,0,1-7.58-23.45c-1.86-7.82-3.29-15.3-4.53-23.5s-2.3-17.1-3.19-26.77c-.85-9.28-1.72-22.33-2.28-33.93s-.86-23.45-.82-31.78v-.7c0-4.33.13-7.34.36-10.41a77.55,77.55,0,0,1,1-8.33,47.8,47.8,0,0,1,4.78-14.07,30.77,30.77,0,0,1,11-11.72,37.9,37.9,0,0,1,7-3.44,67.5,67.5,0,0,1,9-2.64,217.1,217.1,0,0,1,27.08-4.38c9.57-1,19.14-1.84,32-2.83,31.13-2.39,63.93-4.32,96.86-5.85,16.43-.75,32.67-1.42,49.06-2s33-1.12,49.62-1.59c33.3-.91,66.32-1.59,98.56-2q48.75-.69,99-.77h18.95q50.16.07,99,.77c32.23.45,65.25,1.13,98.55,2,16.62.47,33.21,1,49.61,1.59s32.65,1.26,49.07,2c32.94,1.53,65.73,3.46,96.87,5.85,12.8,1,22.38,1.82,32,2.83a216.75,216.75,0,0,1,27.06,4.38,68.35,68.35,0,0,1,9,2.64,37.8,37.8,0,0,1,6.95,3.44,30.85,30.85,0,0,1,11,11.72,48.09,48.09,0,0,1,4.78,14.07,83,83,0,0,1,1,8.33c.23,3.07.33,6.08.36,10.41v.7C1020.72,105.46,1020.41,117.32,1019.86,128.91Zm-7.64-32.73c-.05-4-.15-6.59-.39-9.32a63.45,63.45,0,0,0-1-7.33,38.71,38.71,0,0,0-4.67-12.25,27.45,27.45,0,0,0-10.3-9.87,38.37,38.37,0,0,0-6.31-2.78,69.75,69.75,0,0,0-8.12-2.13,231.48,231.48,0,0,0-25.19-3.78c-9-.91-18.2-1.71-29.71-2.59-31-2.38-63.58-4.3-96.36-5.82-16.35-.75-32.51-1.41-48.83-2s-32.82-1.12-49.64-1.58-33.19-.86-49.63-1.19-32.9-.62-49.28-.85c-32.74-.46-65.31-.7-97.28-.76H516.61c-32,.06-64.55.3-97.29.76q-24.57.35-49.26.85c-16.46.33-32.93.73-49.65,1.19s-33.32,1-49.64,1.58-32.47,1.25-48.82,2c-32.78,1.52-65.41,3.44-96.37,5.82-11.5.88-20.74,1.68-29.7,2.59A231.86,231.86,0,0,0,70.69,52.5a69.75,69.75,0,0,0-8.12,2.13,38,38,0,0,0-6.31,2.78A27.45,27.45,0,0,0,46,67.28a38.71,38.71,0,0,0-4.67,12.25,61.34,61.34,0,0,0-1,7.33c-.24,2.73-.34,5.29-.39,9.32,0,.4,0,.62,0,.85-.08,8.22.15,19.81.62,31.21s1.26,24.31,2.05,33.65c1.65,19.39,3.75,34.14,7,48.49a141.63,141.63,0,0,0,7,22.15,83.66,83.66,0,0,0,11.64,20.11c4.64,5.9,13.42,16.68,36.91,28.55,12.16,6.15,26.21,11.12,44.69,17,9,2.88,18.43,5.67,28.12,8.37s20.35,5.51,30.64,8.07c20.38,5.06,41.5,9.91,62.52,14.42,21.27,4.56,42.12,8.76,62.74,12.6s41.09,7.39,61.64,10.6c43.17,6.76,84.55,12.09,123,15.19,4,.32,7.56.46,7.56.46s3.74-.14,7.71-.46c38.45-3.1,79.83-8.43,123-15.19,20.56-3.21,41-6.74,61.65-10.6s41.47-8,62.74-12.6c21-4.51,42.14-9.36,62.51-14.42,10.3-2.56,21-5.37,30.65-8.07s19.1-5.49,28.12-8.37c18.48-5.9,32.53-10.87,44.69-17,23.49-11.87,32.27-22.65,36.9-28.55a83.36,83.36,0,0,0,11.65-20.11,142.7,142.7,0,0,0,7-22.15c3.25-14.35,5.35-29.1,7-48.49.8-9.34,1.58-22.24,2.05-33.65s.71-23,.62-31.21C1012.23,96.8,1012.22,96.58,1012.22,96.18ZM766.88,51.1c70.08,2.63,140.19,6.31,156.74,8.62,23.87,3.34,26.94,10.44,28.81,26.22,1.31,11-.55,51.76-.55,51.76s-162.47,15.4-187.38,16Zm-351-5.46c20.11-.33,39.51-.56,58.54-.72,14.19-.11,28.52-.18,30.65-.19,15.21-.07,17.81-.06,21-.07s5.75,0,20.95,0c2.13,0,16.46,0,30.65.1,19,.1,38.44.26,58.54.52,33.63.43,67.65,1.08,99.69,1.94L731.23,155.8c-8,.54-16.16,1.08-24.31,1.6s-16.36,1-24.6,1.54q-24.71,1.5-50.12,2.89c-16.06.87-32.77,1.72-49.09,2.49s-32.23,1.43-34.64,1.54c-14.12.66-18.34.77-20.9.8-.68,0-.64,0-1.31,0H525c-2.57,0-6.78-.12-20.91-.74-2.4-.1-18.32-.7-34.64-1.42s-33-1.52-49.09-2.34q-25.46-1.29-50.13-2.72c-8.23-.48-16.45-1-24.61-1.46s-16.27-1-24.32-1.53l-5-108.56C348.28,46.94,382.3,46.17,415.92,45.64Zm-316,40.3c1.88-15.78,4.94-22.88,28.81-26.22,16.56-2.31,86.66-6,156.74-8.62l2.39,102.55c-24.92-.55-187.4-16-187.4-16S98.59,96.93,99.9,85.94Zm149.1,210c-8-1.79-16-3.63-24.09-5.6s-16.06-4-23.18-5.88c-10.12-2.7-17.38-4.84-24.3-7.15-3.45-1.17-6.65-2.32-9.66-3.49s-5.87-2.37-9.37-4a97.79,97.79,0,0,1-23.78-15A75.27,75.27,0,0,1,123.55,243a84.79,84.79,0,0,1-11.17-20.3,134.81,134.81,0,0,1-5.68-18.6,213.77,213.77,0,0,1-3.84-21.87l53.36,6.29q10.88,1.22,22,2.38c7.44.8,15,1.58,22.35,2.33,19.74,2,40.06,3.93,60.69,5.79,9.39.85,18.63,1.66,28,2.45L298,306.26C280.13,302.71,263.89,299.27,249,295.94Zm473.72,16.38c-5.63,1-11.27,2.06-16.87,3.05l-3.09.54-4.94.86-7.54,1.28c-3.93.67-8,1.34-11.91,2-9.19,1.49-18.33,2.91-27.61,4.3l-15.13,2.21c-5,.71-10,1.41-15.12,2.09q-11.43,1.53-22.75,2.94l-4.14.51-6.2.74c-3.08.36-6.2.73-9.4,1.09-4.79.54-9.61,1.06-14.5,1.58-11.54,1.2-22.63,2.15-26.94,2.53-7,.64-9.21.75-10.54.77s-3.25-.13-10.29-.77c-4.31-.38-15.41-1.33-26.95-2.53-4.87-.52-9.69-1-14.49-1.58-3.2-.36-6.33-.73-9.39-1.09l-6.21-.74-4.13-.51q-11.34-1.4-22.75-2.94c-5.09-.68-10.09-1.38-15.12-2.09l-15.15-2.21c-9.28-1.39-18.41-2.81-27.6-4.3-3.94-.64-8-1.31-11.91-2l-7.55-1.28-4.93-.86-3.1-.54q-8.4-1.49-16.87-3.05l-5.55-108,1.55.12L372.12,208l48.36,3.4,48.41,3.08,57.15,3.2,57.4-3.2,48.41-3.08,48.36-3.4,46.52-3.57,1.54-.12ZM945.63,204.07a133.45,133.45,0,0,1-5.68,18.6A84.79,84.79,0,0,1,928.78,243a75.74,75.74,0,0,1-11.07,11.88,97.79,97.79,0,0,1-23.78,15c-3.49,1.6-6.34,2.8-9.36,4s-6.22,2.32-9.67,3.49c-6.92,2.31-14.18,4.45-24.3,7.15-7.12,1.9-15.07,3.92-23.19,5.88s-16.1,3.81-24.08,5.6c-14.89,3.33-31.13,6.77-49,10.32l8.74-104.82c9.34-.79,18.6-1.6,28-2.45,20.64-1.86,41-3.79,60.7-5.79,7.37-.75,14.9-1.53,22.34-2.33s14.78-1.57,22-2.38l53.37-6.29A219.2,219.2,0,0,1,945.63,204.07Zm37.08-29.78c-22.1,2.66-44.23,5.28-82.6,9.36-7.2.77-15,1.59-23.47,2.45-30.95,3.17-82.62,8.21-138.21,12.73-8,.66-16.18,1.3-24.34,1.94-40.6,3.14-82.72,6-124.82,8.48-18.21,1.06-44.32,2.84-63.23,3.4-18.93-.56-44.77-2.34-63-3.4-42.08-2.47-84.2-5.34-124.81-8.48-8.16-.64-16.29-1.28-24.34-1.94-55.58-4.52-107.26-9.56-138.2-12.73-8.49-.86-16.27-1.68-23.49-2.45-38.35-4.08-60.49-6.7-82.6-9.36l-1-12c54.1,6.49,108.87,12.33,163.29,17.42,59,5.51,117.64,10.17,177.63,14.12,35.15,2.31,88.34,6.66,116.5,6.66,36.46-1.8,81.61-4.35,116.76-6.66,60-3.95,118.69-8.61,177.65-14.12,54.42-5.09,109.18-10.93,163.28-17.42Zm-840.53,287H58.62a18.43,18.43,0,0,0-18.37,18.49v43.09a18.43,18.43,0,0,0,18.37,18.49h84.43V493.1H70.64a.88.88,0,0,0-.86.87v14.61a.87.87,0,0,0,.86.87H123V525H62.63a2.3,2.3,0,0,1-2.29-2.32V479.9a2.3,2.3,0,0,1,2.29-2.31h79.55a.87.87,0,0,0,.87-.87v-14.6A.88.88,0,0,0,142.18,461.24Zm117.89,0H179a18.43,18.43,0,0,0-18.36,18.49v43.09A18.43,18.43,0,0,0,179,541.31h81.11a.87.87,0,0,0,.86-.87V525.83a.87.87,0,0,0-.86-.86H183a2.32,2.32,0,0,1-2.29-2.32v-13.2h75.18a.87.87,0,0,0,.86-.87V494a.88.88,0,0,0-.86-.87H180.68V479.9a2.31,2.31,0,0,1,2.29-2.31h77.1a.87.87,0,0,0,.86-.87v-14.6A.88.88,0,0,0,260.07,461.24ZM481.66,525h-66a2.3,2.3,0,0,1-2.29-2.32V462a.86.86,0,0,0-.86-.87H394.13a.86.86,0,0,0-.86.87v60.28a18.92,18.92,0,0,0,18.85,19h69.54a.88.88,0,0,0,.86-.87V525.83A.87.87,0,0,0,481.66,525Zm-105.5-63.73h-81.1a18.43,18.43,0,0,0-18.37,18.49v43.09a18.43,18.43,0,0,0,18.37,18.49h81.1a.87.87,0,0,0,.86-.87V525.83a.87.87,0,0,0-.86-.86H299.07a2.31,2.31,0,0,1-2.3-2.32v-13.2H372a.87.87,0,0,0,.85-.87V494a.87.87,0,0,0-.85-.87H296.77V479.9a2.31,2.31,0,0,1,2.3-2.31h77.09a.87.87,0,0,0,.86-.87v-14.6A.88.88,0,0,0,376.16,461.24Zm191-.07h-22a2,2,0,0,0-1.45.59l-35.32,33.67L473,461.78a2,2,0,0,0-1.46-.61H450a1,1,0,0,0-1,.66l-.11.82,49.36,47.78V540a1.33,1.33,0,0,0,1.31,1.33h17.47a1.33,1.33,0,0,0,1.31-1.33V510.43l49-47.44a1.07,1.07,0,0,0,.22-1.17Zm228.47-.12H777.23a.88.88,0,0,0-.86.88v60.61a2.3,2.3,0,0,1-2.3,2.31H722.48a2.31,2.31,0,0,1-2.3-2.31V461.93a.87.87,0,0,0-.86-.88H701a.88.88,0,0,0-.87.88v60.86a18.42,18.42,0,0,0,18.36,18.48h59.62a18.43,18.43,0,0,0,18.37-18.48V461.93A.88.88,0,0,0,795.59,461.05Zm198.29.08H932.19a18.43,18.43,0,0,0-18.36,18.49v43.24a18.43,18.43,0,0,0,18.36,18.49h61.69a18.43,18.43,0,0,0,18.37-18.49V479.62A18.43,18.43,0,0,0,993.88,461.13Zm-1.71,61.49a2.31,2.31,0,0,1-2.3,2.3H936.21a2.3,2.3,0,0,1-2.29-2.3V479.86a2.31,2.31,0,0,1,2.29-2.31h53.66a2.32,2.32,0,0,1,2.3,2.31ZM904.9,461.17H807.29a.87.87,0,0,0-.86.87v14.6a.87.87,0,0,0,.86.87h38.76v62.93a.87.87,0,0,0,.87.87h18.36a.87.87,0,0,0,.86-.87V477.51H904.9a.87.87,0,0,0,.86-.87V462A.86.86,0,0,0,904.9,461.17Zm-259.09-.11H632.56a15,15,0,0,0-13.28,8L581.8,539.59a1.07,1.07,0,0,0,0,1.07l.51.53h18.92a1.26,1.26,0,0,0,1.12-.69l7.85-15.09h57.91L676,540.52a1.27,1.27,0,0,0,1.12.67h18.51a1.06,1.06,0,0,0,.93-.53l.22-.71-37.67-70.89A15,15,0,0,0,645.81,461.06Zm-27.29,48.42,15.73-30.25a1,1,0,0,1,.9-.55h8.07a1,1,0,0,1,.91.55l15.72,30.25Z"/><path d="M1714.4,75.5H1563.18c-1.3,0-2,.58-2,1.74V99.68a1.73,1.73,0,0,0,2,2H1622V226.06a1.74,1.74,0,0,0,2,2h29.64a1.74,1.74,0,0,0,2-2V101.64h58.83a1.73,1.73,0,0,0,2-2V77.24C1716.36,76.08,1715.7,75.5,1714.4,75.5Zm20,152.52h29.85a1.73,1.73,0,0,0,2-2V164.83h91.08v61.23c0,1.3.58,2,1.74,2h29.86a1.74,1.74,0,0,0,2-2V77.46a1.73,1.73,0,0,0-2-2h-29.86c-1.16,0-1.74.65-1.74,2v61.22h-91.08V77.46a1.73,1.73,0,0,0-2-2h-29.85c-1.16,0-1.74.65-1.74,2v148.6C1732.7,227.36,1733.28,228,1734.44,228Zm185.86,0h29.63a1.73,1.73,0,0,0,2-2V77.46a1.73,1.73,0,0,0-2-2H1920.3a1.73,1.73,0,0,0-2,2v148.6A1.73,1.73,0,0,0,1920.3,228Zm61.23,0h29.63a1.73,1.73,0,0,0,2-2V125c1.89,0,3.63,1,5.23,3l73,90a32,32,0,0,0,8.83,7.3q4.9,2.73,12.53,2.73h30.5a1.73,1.73,0,0,0,2-2V77.46a1.73,1.73,0,0,0-2-2h-29.63a1.73,1.73,0,0,0-2,2v105a6.42,6.42,0,0,1-5.23-2.83l-73.87-94.13a29.17,29.17,0,0,0-7.51-7.08q-4.47-2.94-11.66-2.94h-31.81a1.73,1.73,0,0,0-2,2v148.6A1.73,1.73,0,0,0,1981.53,228Zm192,0h29.63a1.73,1.73,0,0,0,2-2V169.84a2.27,2.27,0,0,1,1.31-2.18.4.4,0,0,0,.32-.11.92.92,0,0,1,.55-.11,1.88,1.88,0,0,1,1.31.66l69.28,57.74a10.14,10.14,0,0,0,6.32,2.18h37.26a1.89,1.89,0,0,0,1.85-1.2,1.91,1.91,0,0,0-.54-2.29l-87.81-72.77L2318.82,79a1.92,1.92,0,0,0,.54-2.29,1.89,1.89,0,0,0-1.85-1.19h-32.9a10.12,10.12,0,0,0-6.32,2.18l-69.72,58.17a1.88,1.88,0,0,1-1.31.66.92.92,0,0,1-.55-.11.4.4,0,0,0-.32-.11,2.1,2.1,0,0,1-1.31-2V77.46a1.73,1.73,0,0,0-2-2h-29.63a1.73,1.73,0,0,0-2,2v148.6A1.73,1.73,0,0,0,2173.49,228Zm-465.6,86h-92.82a50.07,50.07,0,0,0-20.48,4.14,52.45,52.45,0,0,0-27.46,27.56,58.44,58.44,0,0,0-4.79,19.94q-.22,3.7-.33,8.39t-.11,9.91v80.19c0,1.6.58,2.39,1.75,2.39h29.85c1.3,0,2-.79,2-2.39V403.32h108.29c1.89,0,2.83-.66,2.83-2V378.91c0-1.16-.94-1.74-2.83-1.74H1595.46c.14-2,.22-3.92.22-5.67s.07-3.41.21-5a36.73,36.73,0,0,1,1.75-9.37,27.49,27.49,0,0,1,4.35-8.49,24,24,0,0,1,6.87-6.1,17.72,17.72,0,0,1,9.26-2.4h89.77a1.73,1.73,0,0,0,2-2V315.94A1.73,1.73,0,0,0,1707.89,314Zm333.52-2.18h-29.63c-1.31,0-2,.59-2,1.75v83.67a98.44,98.44,0,0,1-1,14.27,41.87,41.87,0,0,1-3.59,12.09,47.19,47.19,0,0,1-2.4,4.58,16.54,16.54,0,0,1-3.49,4,24.72,24.72,0,0,1-5.34,3.37,47.39,47.39,0,0,1-8,2.84,63.63,63.63,0,0,1-10.78,1.52q-6.43.43-13.62.44c-4.65,0-156.13-.15-160.41-.44a68.82,68.82,0,0,1-11-1.52,47.39,47.39,0,0,1-8-2.84,22.26,22.26,0,0,1-5.23-3.37,20.56,20.56,0,0,1-3.49-4,34.93,34.93,0,0,1-2.5-4.58,50.05,50.05,0,0,1-3.49-12.09,87.89,87.89,0,0,1-1.09-14.27V313.55c0-1.16-.65-1.75-2-1.75h-29.63c-1.31,0-2,.59-2,1.75v73.86q0,12.42,1.09,24.19a82.11,82.11,0,0,0,4.57,21.13,45.62,45.62,0,0,0,12.75,18.41q9,8.17,26.47,12.31a76.64,76.64,0,0,0,11.55,1.75q5.88.44,12.64.65c1.6.15,3.7.26,6.32.33s151.73.11,153.33.11,3.7,0,6.32-.11,4.72-.11,6.32-.11q6.75-.22,12.63-.77a86.85,86.85,0,0,0,11.55-1.85q17.65-4.35,26.58-12.53a46.39,46.39,0,0,0,12.64-18.19,79.72,79.72,0,0,0,4.58-21q1.08-11.86,1.09-24.29V313.55C2043.38,312.39,2042.72,311.8,2041.41,311.8Zm144.25,104.81a40.63,40.63,0,0,0,27.67-10.68,41.88,41.88,0,0,0,8.93-11.77,38.74,38.74,0,0,0,4.14-14.81c.14-1.74.25-3.89.33-6.43s.11-5.12.11-7.73,0-5.2-.11-7.74-.19-4.68-.33-6.43a37.67,37.67,0,0,0-4.36-15.14,41.32,41.32,0,0,0-9.37-11.77,40.41,40.41,0,0,0-13-7.51,45.07,45.07,0,0,0-15.36-2.62h-113.3c-1.31,0-2,.58-2,1.75V464.54a1.73,1.73,0,0,0,2,2h29.63a1.73,1.73,0,0,0,2-2V416.61h45.54L2188.05,463a8.89,8.89,0,0,0,7.19,3.48h29.64a1.88,1.88,0,0,0,1.85-1.2,1.69,1.69,0,0,0-.33-2.06Zm-83-26.15V340.13h76.7q6.32,0,9.59,4.68a22.48,22.48,0,0,1,3.92,10.35c.14,1.31.25,2.84.32,4.58s.11,3.56.11,5.45,0,3.7-.11,5.44-.18,3.2-.32,4.36a23.4,23.4,0,0,1-3.92,10.68,10.88,10.88,0,0,1-9.59,4.79ZM2392,314H2240.78c-1.31,0-2,.58-2,1.75v22.44a1.73,1.73,0,0,0,2,2h58.83V464.54a1.73,1.73,0,0,0,2,2h29.64a1.73,1.73,0,0,0,2-2V340.13H2392a1.74,1.74,0,0,0,2-2V315.73C2394,314.56,2393.3,314,2392,314Zm174.52,0h-29.85c-1.16,0-1.74.66-1.74,2v61.23h-91.08V315.94a1.73,1.73,0,0,0-2-2H2412c-1.16,0-1.74.66-1.74,2v148.6c0,1.31.58,2,1.74,2h29.85a1.73,1.73,0,0,0,2-2V403.32h91.08v61.22c0,1.31.58,2,1.74,2h29.85a1.74,1.74,0,0,0,2-2V315.94A1.74,1.74,0,0,0,2566.52,314Zm182.38,0H2645.84a50.16,50.16,0,0,0-20.49,4.14A52.52,52.52,0,0,0,2609,329.34a55.3,55.3,0,0,0-11.11,16.34,56.47,56.47,0,0,0-4.79,19.72c-.15,3.05-.26,6.8-.33,11.22s-.11,8.94-.11,13.51,0,9.08.11,13.51.18,8.17.33,11.22a58.39,58.39,0,0,0,4.79,19.94,52.48,52.48,0,0,0,27.45,27.56,50.16,50.16,0,0,0,20.49,4.14H2748.9a1.73,1.73,0,0,0,2-2V442.32a1.73,1.73,0,0,0-2-2h-100a17.72,17.72,0,0,1-9.26-2.4,24,24,0,0,1-6.87-6.1,27.67,27.67,0,0,1-4.36-8.5,36.62,36.62,0,0,1-1.74-9.37c-.15-1.59-.22-3.27-.22-5s-.07-3.63-.21-5.66h118.53a3.07,3.07,0,0,0,1.85-.55,1.65,1.65,0,0,0,.76-1.41V379.13a1.68,1.68,0,0,0-.76-1.42,3.13,3.13,0,0,0-1.85-.54H2626.23c0-2,0-4,.1-5.77s.18-3.45.33-4.91a32.61,32.61,0,0,1,1.85-9.26,33.37,33.37,0,0,1,4.36-8.49,22.17,22.17,0,0,1,6.76-6.21,17.72,17.72,0,0,1,9.26-2.4h100a1.74,1.74,0,0,0,2-2V315.94A1.74,1.74,0,0,0,2748.9,314Zm184.33,149.26-40.75-46.63a40.63,40.63,0,0,0,27.68-10.68,42.07,42.07,0,0,0,8.93-11.77,38.92,38.92,0,0,0,4.14-14.81c.14-1.74.25-3.89.33-6.43s.11-5.12.11-7.73,0-5.2-.11-7.74-.19-4.68-.33-6.43a37.83,37.83,0,0,0-4.36-15.14,41.32,41.32,0,0,0-9.37-11.77,40.63,40.63,0,0,0-13-7.51,45.07,45.07,0,0,0-15.36-2.62h-113.3c-1.31,0-2,.58-2,1.75V464.54a1.74,1.74,0,0,0,2,2h29.63a1.73,1.73,0,0,0,2-2V416.61H2855L2894.88,463a8.87,8.87,0,0,0,7.19,3.48h29.63a1.89,1.89,0,0,0,1.86-1.2A1.69,1.69,0,0,0,2933.23,463.24Zm-123.76-72.78V340.13h76.7q6.32,0,9.58,4.68a22.26,22.26,0,0,1,3.92,10.35c.15,1.31.26,2.84.33,4.58s.11,3.56.11,5.45,0,3.7-.11,5.44-.18,3.2-.33,4.36a23.17,23.17,0,0,1-3.92,10.68,10.87,10.87,0,0,1-9.58,4.79Z"/><rect x="1296.04" width="22" height="542"/></g></g></svg>